<?xml version="1.0" standalone="no"?>
<!DOCTYPE svg PUBLIC "-//W3C//DTD SVG 20010904//EN"
 "http://www.w3.org/TR/2001/REC-SVG-20010904/DTD/svg10.dtd">
<svg version="1.0" xmlns="http://www.w3.org/2000/svg"
 width="700.000000pt" height="700.000000pt" viewBox="0 0 700.000000 700.000000"
 preserveAspectRatio="xMidYMid meet">
<metadata>
Created by potrace 1.11, written by Peter Selinger 2001-2013
</metadata>
<g transform="translate(0.000000,700.000000) scale(0.100000,-0.100000)"
fill="#000000" stroke="none">
<path d="M1684 4803 c3 -10 150 -571 326 -1248 177 -676 328 -1254 336 -1283
l15 -52 252 0 252 0 279 1060 c154 584 283 1055 286 1048 4 -7 130 -484 281
-1061 l274 -1047 254 2 254 3 338 1290 c186 710 338 1293 339 1298 0 4 -96 7
-213 7 l-213 0 -264 -1010 c-146 -555 -268 -1004 -271 -997 -4 7 -120 444
-259 972 -138 528 -256 977 -262 998 l-11 37 -252 0 -252 0 -100 -382 c-55
-211 -174 -665 -264 -1010 -90 -345 -167 -624 -170 -620 -3 4 -124 458 -269
1010 l-263 1002 -214 0 c-199 0 -214 -1 -209 -17z"/>
<path d="M5180 2515 l0 -295 245 0 245 0 0 295 0 295 -245 0 -245 0 0 -295z"/>
</g>
</svg>
